<?xml version="1.0" standalone="no"?>
<!DOCTYPE svg PUBLIC "-//W3C//DTD SVG 20010904//EN"
 "http://www.w3.org/TR/2001/REC-SVG-20010904/DTD/svg10.dtd">
<svg version="1.0" xmlns="http://www.w3.org/2000/svg"
 width="700.000000pt" height="700.000000pt" viewBox="0 0 700.000000 700.000000"
 preserveAspectRatio="xMidYMid meet">
<metadata>
Created by potrace 1.11, written by Peter Selinger 2001-2013
</metadata>
<g transform="translate(0.000000,700.000000) scale(0.100000,-0.100000)"
fill="#000000" stroke="none">
<path d="M1820 5587 c-3 -3 -36 -8 -75 -11 -38 -4 -86 -11 -105 -16 -19 -5
-47 -11 -61 -14 -47 -8 -183 -54 -251 -85 -215 -98 -387 -249 -532 -467 -171
-255 -271 -550 -312 -919 -9 -84 -11 -346 -3 -425 18 -174 20 -188 44 -300 2
-14 7 -38 11 -55 3 -16 18 -71 34 -120 144 -464 435 -808 808 -956 72 -29 229
-72 302 -83 57 -9 219 -20 295 -20 76 0 266 13 275 19 3 2 24 6 48 10 237 35
471 152 632 314 151 153 258 341 327 576 23 81 61 255 68 320 3 32 9 63 11 67
3 4 -95 8 -218 8 -216 0 -224 -1 -225 -20 -5 -57 -37 -200 -69 -300 -80 -252
-188 -396 -381 -506 -134 -76 -284 -112 -473 -112 -508 -1 -882 320 -1019 873
-10 44 -22 98 -25 120 -3 22 -7 49 -9 60 -18 85 -24 355 -12 500 43 535 266
925 621 1086 82 38 176 66 253 76 69 9 270 10 331 1 210 -30 411 -118 511
-225 87 -93 158 -235 195 -395 l18 -78 217 0 c202 0 217 1 213 18 -64 289
-128 447 -249 617 -130 182 -341 327 -565 387 -76 20 -116 30 -145 34 -16 2
-57 8 -90 13 -61 9 -387 15 -395 8z"/>
<path d="M3903 3879 l0 -1659 212 0 211 0 -1 578 -1 577 272 274 271 273 195
-283 c568 -827 815 -1186 890 -1296 l83 -122 248 -1 c136 0 247 3 247 6 0 5
-29 47 -165 244 -174 250 -549 790 -587 845 -26 39 -174 250 -327 470 l-278
400 671 673 c369 370 672 674 674 676 2 2 -119 4 -267 4 l-271 0 -204 -207
c-113 -113 -278 -281 -368 -372 -90 -92 -361 -368 -603 -614 -242 -246 -446
-454 -453 -461 -7 -8 -16 -14 -20 -14 -4 0 -7 375 -7 832 l0 833 -211 2 -211
1 0 -1659z"/>
</g>
</svg>
