<?xml version="1.0" encoding="utf-8"?>
<!-- Generator: Adobe Illustrator 19.0.0, SVG Export Plug-In . SVG Version: 6.00 Build 0)  -->
<svg version="1.1" id="Layer_2" xmlns="http://www.w3.org/2000/svg" xmlns:xlink="http://www.w3.org/1999/xlink" x="0px" y="0px"
	 viewBox="-477 234.5 300 300" style="enable-background:new -477 234.5 300 300;" xml:space="preserve">
<style type="text/css">
	.st0{fill:#FFFFFF;}
	.st1{fill:#4B2E83;}
	.st2{fill:#D6CB47;}
	.st3{font-family:'TwCenMT-Regular';}
	.st4{font-size:33.6933px;}
	.st5{fill:#FFFFFF;stroke:#FFFFFF;stroke-width:4;stroke-miterlimit:10;}
	.st6{fill:none;stroke:#FFFFFF;stroke-width:4;stroke-miterlimit:10;}
</style>
<g>
	<path class="st0" d="M-177.3,534.5h-299.3c-0.2,0-0.3-0.1-0.3-0.3V234.8c0-0.2,0.1-0.3,0.3-0.3h299.3c0.2,0,0.3,0.1,0.3,0.3v299.3
		C-177,534.4-177.1,534.5-177.3,534.5z"/>
</g>
<rect x="-476.2" y="235.2" class="st1" width="299.7" height="300"/>
<g id="layer1" transform="translate(0,-552.36216)" inkscape:label="Layer 1" inkscape:groupmode="layer">
	<g id="g5638" transform="matrix(1.4314322,0,0,1.3333925,-266.91183,480.23304)">
		<g id="g5624" transform="translate(4,6)">
			<g>
				<g id="g4150_9_" transform="matrix(1.25,0,0,-1.25,389.36129,259.16508)">
					<g>
						<path id="path4152_9_" inkscape:connector-curvature="0" class="st0" d="M-339.3-67.5l-2-2l-2,2l-2-2l-2,2l-2-2l-2,2l-2-2
							l-2,2l8.1,7.7L-339.3-67.5z"/>
					</g>
				</g>
				<g id="g4154_9_" transform="matrix(1.25,0,0,-1.25,389.36129,259.16508)">
					<g>
						<path id="path4156_9_" inkscape:connector-curvature="0" class="st2" d="M-339.3-67.5l-2-2l-2,2l-2-2l-2,2l-2-2l-2,2l-2-2
							l-2,2l8.1,7.7L-339.3-67.5"/>
					</g>
				</g>
				<g id="g4158_9_" transform="matrix(1.25,0,0,-1.25,451.21554,320.17408)">
					<g>
						<g id="path4160_10_" inkscape:connector-curvature="0">
							<line class="st0" x1="-371" y1="-36.2" x2="-421.4" y2="14.3"/>
						</g>
					</g>
				</g>
				<g id="g4162_8_" transform="matrix(1.25,0,0,-1.25,275.59179,320.17408)">
					<g id="path4164_9_" inkscape:connector-curvature="0">
						<line class="st0" x1="-280.9" y1="-36.2" x2="-255.7" y2="-11"/>
					</g>
				</g>
				<g id="g4166_9_" transform="matrix(1.25,0,0,-1.25,273.17291,317.82658)">
					<g>
						<g id="path4168_22_" inkscape:connector-curvature="0">
							<path class="st0" d="M-230.2,12"/>
						</g>
						<g id="path4168_21_" inkscape:connector-curvature="0">
							<path class="st0" d="M-279.7-37.4"/>
						</g>
					</g>
				</g>
				<g id="g4170_9_" transform="matrix(1.25,0,0,-1.25,277.73953,320.17408)">
					<g>
						<g id="path4172_22_" inkscape:connector-curvature="0">
							<path class="st0" d="M-232.3,13.5"/>
						</g>
						<g id="path4172_21_" inkscape:connector-curvature="0">
							<path class="st0" d="M-282-36.2"/>
						</g>
					</g>
				</g>
			</g>
		</g>
		<g>
			<text transform="matrix(-0.2007 0.5577 -0.6624 -0.2383 -104.5062 317.6184)" class="st0 st3 st4">-</text>
		</g>
		<g>
			<text transform="matrix(-6.070640e-02 0.5943 -0.6955 -7.103948e-02 -108.6106 333.3153)" class="st0 st3 st4">-</text>
		</g>
		<g>
			<text transform="matrix(8.192831e-02 0.5913 -0.6929 9.598071e-02 -108.8379 349.5097)" class="st0 st3 st4">-</text>
		</g>
		<g>
			<text transform="matrix(0.2289 0.545 -0.6506 0.2733 -105.1531 365.5041)" class="st0 st3 st4">S</text>
		</g>
		<g>
			<text transform="matrix(0.368 0.4487 -0.5551 0.4553 -96.4858 381.8261)" class="st0 st3 st4">N</text>
		</g>
		<g>
			<text transform="matrix(0.4771 0.3084 -0.3983 0.6161 -82.0994 396.3802)" class="st0 st3 st4">O</text>
		</g>
		<g>
			<text transform="matrix(0.5425 0.1349 -0.1801 0.7246 -63.3924 406.1935)" class="st0 st3 st4">W</text>
		</g>
		<g>
			<text transform="matrix(0.5351 -0.1657 0.2204 0.7117 -25.5312 407.4525)" class="st0 st3 st4">C</text>
		</g>
		<g>
			<text transform="matrix(0.4747 -0.3126 0.4033 0.6124 -7.8209 400.0887)" class="st0 st3 st4">L</text>
		</g>
		<g>
			<text transform="matrix(0.3796 -0.4374 0.5433 0.4715 5.9822 389.2661)" class="st0 st3 st4">U</text>
		</g>
		<g>
			<text transform="matrix(0.2401 -0.5394 0.6453 0.2872 17.7919 372.7458)" class="st0 st3 st4">B</text>
		</g>
		<g>
			<text transform="matrix(9.014550e-02 -0.59 0.6916 0.1057 23.8554 354.7077)" class="st0 st3 st4">-</text>
		</g>
		<g>
			<text transform="matrix(-5.238681e-02 -0.5952 0.6963 -6.128072e-02 24.8826 338.5529)" class="st0 st3 st4">-</text>
		</g>
		<g>
			<text transform="matrix(-0.1929 -0.5608 0.6653 -0.2289 22.0247 322.5747)" class="st0 st3 st4">-</text>
		</g>
		<g>
			<text transform="matrix(0.4778 -0.307 0.3966 0.6174 -80.3326 302.6455)" class="st0 st3 st4">H</text>
		</g>
		<g>
			<text transform="matrix(0.5395 -0.1482 0.1977 0.7193 -62.4272 293.3543)" class="st0 st3 st4">U</text>
		</g>
		<g>
			<text transform="matrix(0.5568 1.090819e-02 -1.469021e-02 0.7498 -42.5311 289.8749)" class="st0 st3 st4">S</text>
		</g>
		<g>
			<text transform="matrix(0.5338 0.1703 -0.2264 0.7095 -24.1587 291.8885)" class="st0 st3 st4">K</text>
		</g>
		<g>
			<text transform="matrix(0.4683 0.3235 -0.4161 0.6024 -5.5876 299.8103)" class="st0 st3 st4">Y</text>
		</g>
	</g>
</g>
<line class="st5" x1="-369.3" y1="423.1" x2="-283.3" y2="342.2"/>
<line class="st6" x1="-312.3" y1="370.8" x2="-312.5" y2="370.7"/>
<line class="st5" x1="-280.2" y1="422.1" x2="-369.3" y2="339"/>
</svg>
